<svg xmlns="http://www.w3.org/2000/svg" width="24" height="18" fill="none" viewBox="0 0 24 18">
    <path fill="#08CEBB" d="M.381 17.69H0v-2.902h.565l.829 2.47.823-2.47h.565v2.902H2.4v-2.456l-.82 2.456h-.379l-.821-2.448v2.448zm3.844-1.16L3.13 14.787h.46l.834 1.407.835-1.407h.454l-1.094 1.747v1.155h-.393v-1.16zm3.017 1.16v-2.902H8.51c.282 0 .502.07.66.213.159.14.239.336.239.586 0 .276-.08.49-.24.646-.157.155-.377.233-.659.233-.37-.001-.662 0-.876.004v1.22h-.393zm.393-1.56h.78c.204 0 .353-.043.448-.128.095-.087.142-.222.142-.407 0-.163-.047-.282-.142-.357-.095-.076-.244-.115-.448-.115h-.78v1.007zm2.312 1.56v-2.902h1.35c.308 0 .542.067.703.201.16.133.24.329.24.586 0 .255-.083.453-.25.597a.896.896 0 0 1-.136.095l.065.031c.176.102.268.272.274.512l.016.529c.003.087.014.149.034.187.02.038.058.071.114.099v.063h-.483a.845.845 0 0 1-.032-.185c-.01-.1-.018-.212-.024-.334l-.008-.23c-.005-.18-.049-.308-.132-.384-.083-.078-.218-.117-.407-.117h-.931v1.252h-.393zm.393-1.591h.971c.182 0 .315-.04.399-.119.084-.08.126-.206.126-.379 0-.167-.045-.29-.134-.367-.088-.078-.229-.117-.42-.117h-.942v.982zm3.745 1.67c-.421 0-.762-.14-1.023-.42-.26-.282-.39-.651-.39-1.108 0-.458.13-.828.39-1.11.26-.281.602-.422 1.023-.422.424 0 .765.14 1.025.422.26.282.39.652.39 1.11 0 .457-.13.826-.39 1.108-.26.28-.601.42-1.025.42zm0-.347a.917.917 0 0 0 .732-.326c.186-.217.279-.502.279-.855 0-.354-.093-.64-.279-.857a.914.914 0 0 0-.732-.328.912.912 0 0 0-.73.328c-.186.217-.279.503-.279.857 0 .353.093.638.278.855.186.217.43.326.73.326zm1.923.268v-2.902h2.01v.347H16.4v.887h1.415v.347h-1.415v1.321h-.393zm2.492 0v-2.902h.392v2.902H18.5zm1.066 0v-2.902h.393v2.555h1.47v.347h-1.863zm2.29 0v-2.902h2.122v.347h-1.73v.887h1.58v.347h-1.58v.974H24v.347h-2.144z"/>
    <path fill="#E7ECED" d="M10.534 9.51l-1.81.987a1.63 1.63 0 0 0-.29.207 6.037 6.037 0 0 0 3.906 1.426 6.04 6.04 0 0 0 3.882-1.406 1.6 1.6 0 0 0-.319-.214l-1.938-.969a.739.739 0 0 1-.408-.66v-.76c.054-.063.117-.142.183-.237a4.46 4.46 0 0 0 .602-1.214.609.609 0 0 0 .432-.579V5.28a.606.606 0 0 0-.203-.45V3.657s.241-1.826-2.231-1.826c-2.473 0-2.232 1.826-2.232 1.826V4.83a.605.605 0 0 0-.202.45v.811c0 .214.112.402.28.511.203.883.734 1.518.734 1.518v.742a.74.74 0 0 1-.386.648z"/>
    <path fill="#08CEBB" d="M12.443 0a6.065 6.065 0 0 0-6.168 5.961 6.047 6.047 0 0 0 2.162 4.741 1.61 1.61 0 0 1 .288-.204l1.81-.988a.74.74 0 0 0 .384-.648V8.12s-.53-.635-.733-1.518a.609.609 0 0 1-.281-.51V5.28c0-.179.08-.338.203-.45V3.657S9.867 1.83 12.339 1.83c2.473 0 2.232 1.826 2.232 1.826V4.83a.605.605 0 0 1 .203.45v.811a.609.609 0 0 1-.432.58 4.46 4.46 0 0 1-.602 1.213 2.944 2.944 0 0 1-.184.236v.76c0 .28.158.536.409.661l1.938.97c.116.057.221.13.318.212A6.064 6.064 0 0 0 12.444.001z"/>
</svg>
