<svg xmlns="http://www.w3.org/2000/svg" width="12" height="12" fill="none" viewBox="0 0 12 12">
    <g fill="#08CEBB" clip-path="url(#a)">
        <path d="M11.555 8.547c-.229-.017-.703.241-.835.306a14.76 14.76 0 0 0-1.527.889c-.03.02-.07.047-.1.065-.188.121-.39.203-.613.25-1.227.261-3.015.29-3.015.29l-.104.006a.148.148 0 1 1-.022-.296l2.66-.253a.565.565 0 0 0 .494-.613.564.564 0 0 0-.609-.502l-2.364-.03a2.627 2.627 0 0 1-.574-.087c-1.525-.444-2.384-.027-2.84.167a.552.552 0 0 0-.512-.264l-1.021.067a.599.599 0 0 0-.571.634l.164 2.265a.608.608 0 0 0 .655.551l1.02-.067a.542.542 0 0 0 .468-.328l4.48.194c.5.052.966-.008 1.406-.239l.129-.067 3.385-1.981a.558.558 0 0 0 .29-.455c.01-.226-.121-.48-.444-.502zM1.196 11.456a.341.341 0 0 1-.347-.336c0-.186.156-.335.347-.335.191 0 .348.149.348.335a.341.341 0 0 1-.348.336z"/>
        <path d="M9.143 9.253c.346-.241 1.053-.626 1.453-.827.122-.06.249-.122.385-.17-.174-.116-.36-.12-.554-.046-.38.151-1.08.489-1.438.683-.002.005-.005.01-.005.015a1.039 1.039 0 0 1 .055.42 1.9 1.9 0 0 1 .104-.075zM10.057 7.984a.57.57 0 0 0-.546-.043c-.236.092-.76.264-.993.388.099.062.188.139.265.228.015-.01.03-.022.048-.032L9 8.431c.25-.137.783-.326 1.056-.447zM9.717 3.578a1.86 1.86 0 1 0-2.59-1.711l.002.03a3.417 3.417 0 0 1 2.588 1.68zM6.774 7.986a2.702 2.702 0 1 0 0-5.403 2.702 2.702 0 0 0 0 5.403zM5.83 6.352c.025-.09.05-.179.077-.266.033-.102.06-.114.154-.067.162.085.33.13.51.152a.61.61 0 0 0 .332-.045c.199-.087.231-.318.062-.455a.805.805 0 0 0-.188-.111c-.174-.077-.355-.134-.522-.234-.266-.159-.437-.38-.417-.703.022-.367.23-.596.566-.717.14-.05.14-.05.142-.194v-.147c.002-.109.022-.129.129-.131h.102c.23 0 .23 0 .233.23 0 .165 0 .165.164.192.124.02.246.057.36.107.065.027.087.072.07.139-.03.1-.057.201-.09.3-.03.095-.06.107-.151.065a1.168 1.168 0 0 0-.571-.114.394.394 0 0 0-.152.032c-.174.075-.201.266-.055.385.075.06.16.102.249.139.154.065.308.124.452.204.464.255.588.84.26 1.234a.857.857 0 0 1-.449.288c-.077.022-.114.062-.11.144.003.08 0 .16 0 .239 0 .072-.036.109-.106.111a4.484 4.484 0 0 1-.258 0c-.075-.002-.112-.044-.112-.116 0-.058 0-.117-.003-.174-.002-.13-.005-.134-.129-.154a1.65 1.65 0 0 1-.46-.132c-.11-.052-.12-.082-.089-.201z"/>
    </g>
    <defs>
        <clipPath id="a">
            <path fill="#fff" d="M0 0h24v24H0z" transform="scale(.5)"/>
        </clipPath>
    </defs>
</svg>
