<svg xmlns="http://www.w3.org/2000/svg" width="10" height="11" fill="none" viewBox="0 0 10 11">
    <path fill="#08CEBB" d="M9.987 9.022l-.219-1.23c-.121-.69-.703-1.25-1.468-1.404l-1.48-.296a.212.212 0 0 0-.243.12l-.91 2.228-.352-1.12h.037a.215.215 0 0 0 .206-.153l.085-.439c.024-.11-.073-.22-.206-.22H4.6a.202.202 0 0 0-.207.22l.085.44c.012.087.097.153.207.153h.036l-.352 1.12-.91-2.229a.219.219 0 0 0-.243-.12l-1.48.296C.972 6.542.39 7.09.268 7.793l-.255 1.23c-.085.46.243.888.74.998 1.262.263 2.706.417 4.247.417 1.54 0 2.985-.154 4.246-.417.498-.11.825-.549.74-.999zM2.634 3.94C2.998 5.17 4.054 6.06 5 6.06c.946 0 2.002-.89 2.366-2.119.194-.044.4-.318.46-.67.086-.416-.035-.79-.266-.822h-.085C7.39 1.043 6.893 0 5 0 3.107 0 2.61 1.043 2.525 2.437H2.44c-.23.044-.352.417-.267.823.06.362.267.636.461.68z"/>
</svg>
