<svg xmlns="http://www.w3.org/2000/svg" width="12" height="12" fill="none" viewBox="0 0 12 12">
    <path fill="#08CEBB" d="M12 8.121a3.89 3.89 0 0 0-2.134-3.464 5.29 5.29 0 0 1-5.21 5.21A3.89 3.89 0 0 0 8.122 12c.698 0 1.377-.186 1.974-.54l1.888.523-.522-1.888c.353-.597.539-1.276.539-1.974z"/>
    <path fill="#08CEBB" d="M9.164 4.582A4.587 4.587 0 0 0 4.582 0 4.587 4.587 0 0 0 0 4.582c0 .823.22 1.625.635 2.329L.017 9.147l2.236-.618a4.568 4.568 0 0 0 2.329.635 4.587 4.587 0 0 0 4.582-4.582zM3.88 3.516h-.703c0-.776.63-1.407 1.406-1.407a1.408 1.408 0 0 1 .949 2.444l-.597.547v.548H4.23v-.857l.826-.756a.704.704 0 1 0-1.177-.519zm.351 2.836h.704v.703H4.23v-.703z"/>
</svg>
