<svg xmlns="http://www.w3.org/2000/svg" width="15" height="20" fill="none" viewBox="0 0 15 20">
    <path fill="#626161" d="M1.809 19v-2.871h.388v1.178h1.498v-1.178h.389V19h-.389v-1.35H2.197V19H1.81zm4.136.078c-.416 0-.754-.139-1.011-.416-.258-.278-.387-.644-.387-1.096 0-.453.129-.819.387-1.097.257-.279.595-.418 1.011-.418.42 0 .757.14 1.014.418.258.278.387.644.387 1.097 0 .452-.13.818-.387 1.096-.257.277-.594.416-1.014.416zm0-.344c.3 0 .541-.107.725-.322.184-.215.275-.497.275-.846 0-.35-.091-.632-.275-.847a.904.904 0 0 0-.725-.325.902.902 0 0 0-.722.325c-.184.215-.276.497-.276.847s.092.631.276.846a.904.904 0 0 0 .722.322zM8.174 19h-.378v-2.871h.56l.82 2.443.814-2.443h.559V19h-.378v-2.43L9.362 19h-.375l-.812-2.422V19zm3.006 0v-2.871h2.1v.344h-1.712v.877h1.563V17.693h-1.563v.963h1.733V19H11.18zM2.04 13.81s-.014.335.314.335l3.78-.004.006-3.099s-.053-.51.443-.51h1.569c.586 0 .55.51.55.51l-.007 3.089h3.701c.416 0 .397-.418.397-.418V8.001l-5.216-4.64-5.537 4.64v5.809z"/>
    <path fill="#626161" d="M0 7.57s.47.866 1.496 0l6.127-5.184 5.745 5.151c1.187.856 1.632 0 1.632 0L7.623.855 0 7.569zM13.229 2.374h-1.478l.006 1.792 1.472 1.248v-3.04z"/>
</svg>