<svg xmlns="http://www.w3.org/2000/svg" width="12" height="12" fill="none" viewBox="0 0 12 12">
    <g fill="#08CEBB" clip-path="url(#a)">
        <path d="M11.962 5.309a.506.506 0 0 0-.109-.163l-1.5-1.5a.5.5 0 0 0-.706.707l.646.647H7.5a.5.5 0 1 0 0 1h2.793l-.646.646a.5.5 0 1 0 .707.707l1.5-1.5a.5.5 0 0 0 .108-.545z"/>
        <path d="M8.5 7a.5.5 0 0 0-.5.5V10H6V2a.5.5 0 0 0-.356-.479L3.907 1H8v2.5a.5.5 0 1 0 1 0v-3a.5.5 0 0 0-.5-.5h-8C.482 0 .466.007.45.01a.501.501 0 0 0-.212.073C.226.09.213.091.202.1.198.102.196.108.192.111A.495.495 0 0 0 .06.269C.052.282.051.297.045.31.03.348.012.387.006.427c-.003.016.002.03.001.044C.007.481 0 .49 0 .5v10a.5.5 0 0 0 .402.49l5 1A.5.5 0 0 0 6 11.5V11h2.5a.5.5 0 0 0 .5-.5v-3a.5.5 0 0 0-.5-.5z"/>
    </g>
    <defs>
        <clipPath id="a">
            <path fill="#fff" d="M0 0h24v24H0z" transform="scale(.5)"/>
        </clipPath>
    </defs>
</svg>
