<svg xmlns="http://www.w3.org/2000/svg" width="12" height="12" fill="none" viewBox="0 0 12 12">
    <path fill="#08CEBB" d="M0 6.552c0-.236.053-.462.15-.668.01-.053.02-.105.035-.158l1.042-2.583.008-.023c.364-1.086.883-2.091 2.199-2.091h5.031c1.348 0 1.825 1.03 2.197 2.085l1.09 2.59c.158.252.248.54.248.848v.803c0 .125-.015.246-.043.363.027.071.043.147.043.228v2.39c0 .351-.284.635-.635.635h-1.317a.635.635 0 0 1-.635-.634V9.14H2.512v1.196c0 .35-.285.634-.635.634H.635A.635.635 0 0 1 0 10.337V7.946c0-.08.016-.157.043-.228A1.57 1.57 0 0 1 0 7.355v-.803zm9.889-3.18c-.415-1.17-.749-1.528-1.424-1.528h-5.03c-.67 0-1.044.4-1.423 1.524l-.76 1.541c.248-.092.521-.143.808-.143h7.88c.258 0 .505.042.734.117l-.785-1.51zm-.654 4.289h1.39a.453.453 0 0 0 0-.907h-1.39a.453.453 0 0 0 0 .907zm-4.91-.091H7.56a.287.287 0 0 0 0-.574H4.326a.287.287 0 1 0 0 .574zm-2.915.09H2.8a.453.453 0 0 0 0-.906H1.41a.453.453 0 1 0 0 .907z"/>
</svg>
