<svg xmlns="http://www.w3.org/2000/svg" width="20" height="19" fill="none" viewBox="0 0 20 19">
    <path fill="#626161" d="M1.873 16.584a.573.573 0 0 0-.216-.421c-.126-.1-.296-.15-.51-.15-.22 0-.387.043-.502.128a.438.438 0 0 0-.17.374c0 .112.037.195.113.25.076.055.23.11.459.163l.504.12c.27.065.463.16.578.286.116.124.173.3.173.529 0 .262-.1.47-.299.624-.198.153-.467.23-.807.23-.377 0-.673-.088-.885-.266-.207-.174-.311-.413-.311-.716v-.021h.36c.007.21.083.371.228.486.146.114.349.17.608.17.24 0 .423-.04.547-.123a.41.41 0 0 0 .187-.364c0-.14-.041-.242-.124-.31-.081-.065-.245-.127-.492-.186l-.503-.12c-.255-.06-.436-.145-.545-.252-.11-.108-.164-.256-.164-.447 0-.277.094-.496.282-.657.189-.163.443-.244.763-.244.326 0 .585.081.777.244.193.163.296.387.31.673h-.36zm.964 2.054v-2.892h2.116v.346H3.229v.884h1.574v.346H3.23v.97h1.745v.346H2.837zm2.696 0v-2.892H6.88c.307 0 .54.067.7.2.16.133.24.328.24.585 0 .253-.083.451-.25.594a.886.886 0 0 1-.135.095l.065.031c.176.101.267.271.274.51l.015.527a.464.464 0 0 0 .034.187.24.24 0 0 0 .114.098v.063h-.482a.84.84 0 0 1-.032-.185 5.43 5.43 0 0 1-.023-.332l-.008-.228c-.005-.18-.05-.308-.132-.384-.083-.078-.218-.116-.405-.116h-.93v1.247h-.391zm.392-1.586h.968c.181 0 .313-.039.397-.118.084-.08.126-.206.126-.378 0-.166-.044-.288-.133-.366-.088-.077-.228-.116-.42-.116h-.938v.978zm2.247-1.306h.435l.83 2.471.829-2.471h.432l-1.052 2.892h-.421l-1.053-2.892zm2.973 2.892v-2.892h.392v2.892h-.392zm3.5-1.064c-.049.357-.186.637-.41.84-.223.202-.506.303-.848.303-.4 0-.717-.137-.955-.411-.236-.276-.354-.646-.354-1.112 0-.466.123-.836.368-1.112.247-.277.577-.415.992-.415.326 0 .595.084.804.252.21.168.336.4.378.694h-.378a.684.684 0 0 0-.267-.442.883.883 0 0 0-.543-.158c-.29 0-.521.107-.693.321-.172.213-.258.5-.258.86 0 .383.08.675.238.876.16.2.392.3.695.3a.79.79 0 0 0 .559-.206c.148-.139.246-.336.295-.59h.378zm.514 1.064v-2.892h2.116v.346H15.55v.884h1.574v.346h-1.574v.97h1.745v.346H15.16zm4.412-2.054a.573.573 0 0 0-.216-.421c-.126-.1-.296-.15-.51-.15-.22 0-.388.043-.502.128a.438.438 0 0 0-.171.374c0 .112.038.195.114.25.076.055.229.11.459.163l.503.12c.27.065.463.16.579.286.115.124.173.3.173.529 0 .262-.1.47-.3.624-.197.153-.466.23-.806.23-.378 0-.673-.088-.885-.266-.208-.174-.311-.413-.311-.716v-.021h.36c.006.21.082.371.228.486.146.114.348.17.608.17.24 0 .423-.04.547-.123a.41.41 0 0 0 .187-.364c0-.14-.041-.242-.124-.31-.081-.065-.245-.127-.492-.186l-.503-.12c-.255-.06-.437-.145-.546-.252-.108-.108-.163-.256-.163-.447 0-.277.094-.496.281-.657.19-.163.444-.244.764-.244.325 0 .584.081.777.244.193.163.296.387.31.673h-.361z"/>
    <g clip-path="url(#a)">
        <path fill="#626161" d="M17.39 6.27c-.022-.199-.254-.348-.454-.348-.646 0-1.22-.38-1.46-.966a1.571 1.571 0 0 1 .394-1.744.392.392 0 0 0 .044-.532c-.331-.42-.707-.8-1.118-1.128a.393.393 0 0 0-.536.043c-.42.466-1.175.639-1.759.395A1.566 1.566 0 0 1 11.55.46a.391.391 0 0 0-.346-.412A7.037 7.037 0 0 0 9.616.043a.393.393 0 0 0-.35.403 1.57 1.57 0 0 1-.965 1.505c-.576.236-1.326.064-1.746-.398a.393.393 0 0 0-.532-.044 7.01 7.01 0 0 0-1.14 1.128.392.392 0 0 0 .041.536c.491.444.65 1.151.395 1.76-.244.58-.846.953-1.535.953a.384.384 0 0 0-.407.346 7.07 7.07 0 0 0-.003 1.604c.022.199.26.347.462.347a1.547 1.547 0 0 1 1.451.966 1.569 1.569 0 0 1-.394 1.744.392.392 0 0 0-.043.531c.328.418.704.797 1.116 1.129.161.13.396.112.537-.043.422-.466 1.176-.639 1.758-.395.608.255.991.87.954 1.53a.391.391 0 0 0 .346.412 6.976 6.976 0 0 0 1.587.005.393.393 0 0 0 .348-.404 1.567 1.567 0 0 1 .966-1.504c.58-.237 1.327-.063 1.746.397.14.152.37.17.532.045a7.02 7.02 0 0 0 1.141-1.128.392.392 0 0 0-.042-.536 1.563 1.563 0 0 1-.395-1.76c.24-.571.82-.955 1.443-.955l.087.002a.393.393 0 0 0 .413-.346c.062-.53.063-1.07.003-1.604zm-7.008 4.848a4.066 4.066 0 1 1 3.49-1.98l-1.78-1.781c.13-.304.197-.634.197-.974 0-.665-.26-1.291-.73-1.762a2.476 2.476 0 0 0-1.762-.73c-.222 0-.444.03-.657.088a.282.282 0 0 0-.196.196.276.276 0 0 0 .079.27s.878.886 1.172 1.18c.031.03.031.104.027.13l-.003.02c-.03.323-.087.711-.134.86l-.019.018-.02.02c-.15.049-.544.107-.873.136v-.002l-.014.004h-.014a.188.188 0 0 1-.135-.057L7.859 5.61a.287.287 0 0 0-.205-.092.28.28 0 0 0-.263.213 2.5 2.5 0 0 0 .643 2.415c.471.47 1.097.73 1.763.73.34 0 .67-.068.973-.197l1.8 1.8a4.045 4.045 0 0 1-2.188.64z"/>
    </g>
    <defs>
        <clipPath id="a">
            <path fill="#fff" d="M0 0h28v28H0z" transform="matrix(.50374 0 0 .50374 3.33 0)"/>
        </clipPath>
    </defs>
</svg>
