<svg xmlns="http://www.w3.org/2000/svg" width="70" height="70" fill="none" viewBox="0 0 70 70">
    <circle cx="35" cy="35" r="35" fill="#626161" fill-opacity=".1"/>
    <path fill="#08CEBB" fill-opacity=".6" stroke="#08CEBB" stroke-width=".3" d="M44.852 21.578h-1.629v-1.555a.223.223 0 1 0-.446 0v1.555h-1.629a.223.223 0 1 0 0 .446h1.629v1.703a.223.223 0 1 0 .446 0v-1.703h1.629a.223.223 0 0 0 0-.446z"/>
    <path fill="#08CEBB" fill-opacity=".6" d="M41.914 23.586A1.927 1.927 0 0 0 40.5 23h-1.75l-.398-1.062a1.451 1.451 0 0 0-.543-.66A1.392 1.392 0 0 0 37 21h-4c-.276 0-.546.093-.809.277a1.451 1.451 0 0 0-.543.66L31.25 23H29.5c-.552 0-1.023.195-1.414.586-.39.39-.586.862-.586 1.414v7c0 .552.195 1.024.586 1.414.39.39.862.586 1.414.586h11c.552 0 1.023-.195 1.414-.586.39-.39.586-.862.586-1.414v-7c0-.552-.195-1.023-.586-1.414zm-4.441 7.387A3.37 3.37 0 0 1 35 32a3.37 3.37 0 0 1-2.473-1.027A3.37 3.37 0 0 1 31.5 28.5a3.37 3.37 0 0 1 1.027-2.472A3.37 3.37 0 0 1 35 25c.964 0 1.788.343 2.473 1.028A3.37 3.37 0 0 1 38.5 28.5a3.37 3.37 0 0 1-1.027 2.473z"/>
    <path fill="#08CEBB" fill-opacity=".6" d="M35 26.25c-.62 0-1.15.22-1.59.66-.44.44-.66.97-.66 1.59 0 .62.22 1.15.66 1.59.44.44.97.66 1.59.66.62 0 1.15-.22 1.59-.66.44-.44.66-.97.66-1.59 0-.62-.22-1.15-.66-1.59-.44-.44-.97-.66-1.59-.66zM14.127 47.5l2.44-6.46h.997l2.32 6.46h-.94l-.655-1.872h-2.584l-.677 1.872h-.901zm2.896-5.51l-1.037 2.864h2.035l-.998-2.865zm5.357 5.637c-.63 0-1.13-.234-1.503-.703-.372-.471-.558-1.107-.558-1.907 0-.706.18-1.276.54-1.71.361-.433.831-.65 1.411-.65.578 0 1.035.245 1.372.734l.061.088V41.04h.791v6.46h-.734v-.642l-.1.145a1.546 1.546 0 0 1-1.28.624zm.044-4.258c-.442 0-.766.142-.97.426-.206.282-.309.73-.309 1.345 0 .58.11 1.027.33 1.34.223.314.54.47.95.47.383 0 .692-.143.927-.43.234-.29.351-.672.351-1.147 0-.642-.111-1.135-.334-1.48a1.053 1.053 0 0 0-.945-.524zm4.966 4.258c-.63 0-1.13-.234-1.503-.703-.372-.471-.558-1.107-.558-1.907 0-.706.18-1.276.54-1.71.361-.433.831-.65 1.411-.65.577 0 1.034.245 1.371.734l.062.088V41.04h.791v6.46h-.734v-.642l-.101.145a1.546 1.546 0 0 1-1.279.624zm.044-4.258c-.442 0-.766.142-.971.426-.205.282-.308.73-.308 1.345 0 .58.11 1.027.33 1.34.223.314.539.47.95.47.383 0 .692-.143.926-.43.235-.29.352-.672.352-1.147 0-.642-.111-1.135-.334-1.48a1.053 1.053 0 0 0-.945-.524zm5.867 4.131v-6.46h2.825c.627 0 1.117.158 1.468.475.355.313.532.748.532 1.305 0 .612-.177 1.091-.532 1.437-.351.346-.84.518-1.468.518-.823-.002-1.473 0-1.95.01V47.5H33.3zm.874-3.472h1.736c.454 0 .787-.095.998-.285.21-.194.316-.495.316-.906 0-.363-.105-.628-.316-.795-.211-.17-.544-.255-.998-.255h-1.736v2.241zm4.94 3.472v-6.46h.791v2.395l.136-.176a1.624 1.624 0 0 1 1.288-.602c.518 0 .918.14 1.2.422.28.281.421.681.421 1.2V47.5h-.791v-3.023c0-.39-.075-.67-.224-.84-.15-.173-.392-.26-.73-.26-.398 0-.714.146-.949.436-.234.287-.351.677-.351 1.169V47.5h-.791zm6.925.127c-.65 0-1.177-.228-1.581-.685-.402-.457-.603-1.056-.603-1.797 0-.745.201-1.345.602-1.802.405-.457.932-.686 1.583-.686.656 0 1.185.229 1.586.686.401.457.602 1.057.602 1.801 0 .742-.2 1.34-.602 1.798-.401.457-.93.685-1.587.685zm0-.68c.416 0 .748-.163.994-.489.246-.325.369-.763.369-1.313 0-.551-.123-.99-.37-1.314a1.178 1.178 0 0 0-.992-.493c-.416 0-.747.164-.994.493-.243.325-.364.763-.364 1.313 0 .551.121.99.364 1.315.247.325.578.487.994.487zm4.821.549a4.41 4.41 0 0 1-.588.061c-.346 0-.59-.076-.734-.228-.141-.153-.211-.415-.211-.787v-3.098h-.65v-.646h.65v-1.319h.79v1.319h.743v.646h-.742v3.098c0 .105.04.189.123.25a.565.565 0 0 0 .338.093h.281v.61zm2.694.131c-.65 0-1.178-.228-1.582-.685-.401-.457-.602-1.056-.602-1.797 0-.745.2-1.345.602-1.802.404-.457.932-.686 1.582-.686.656 0 1.185.229 1.587.686.401.457.602 1.057.602 1.801 0 .742-.201 1.34-.602 1.798-.402.457-.93.685-1.587.685zm0-.68c.416 0 .747-.163.993-.489.246-.325.37-.763.37-1.313 0-.551-.124-.99-.37-1.314a1.177 1.177 0 0 0-.993-.493c-.416 0-.747.164-.993.493-.243.325-.365.763-.365 1.313 0 .551.122.99.365 1.315.246.325.577.487.993.487z"/>
</svg>
