<svg xmlns="http://www.w3.org/2000/svg" width="10" height="10" fill="none" viewBox="0 0 10 10">
    <path fill="#08CEBB" d="M9.474 8.063H.526c-.14 0-.273.05-.372.14A.452.452 0 0 0 0 8.537c0 .125.055.246.154.335a.557.557 0 0 0 .372.139h8.948c.14 0 .273-.05.372-.139A.452.452 0 0 0 10 8.538a.452.452 0 0 0-.154-.336.557.557 0 0 0-.372-.139zM1.842 7.59h1.053a.289.289 0 0 0 .187-.07l5-4.505a.237.237 0 0 0 .057-.077.217.217 0 0 0 0-.182.237.237 0 0 0-.057-.078L7.029 1.73a.288.288 0 0 0-.374 0l-5 4.505a.237.237 0 0 0-.057.078.217.217 0 0 0-.02.09v.95c0 .062.029.122.078.167.05.044.116.07.186.07zM8.495 2.304a.289.289 0 0 0 .19.069.279.279 0 0 0 .183-.07l1.053-.948a.237.237 0 0 0 .058-.077.217.217 0 0 0 0-.182.237.237 0 0 0-.058-.077L8.868.07a.288.288 0 0 0-.374 0l-1.052.949a.226.226 0 0 0-.075.166c0 .062.027.121.075.166l1.053.953z"/>
</svg>
