<svg xmlns="http://www.w3.org/2000/svg" width="15" height="28" fill="none" viewBox="0 0 15 28">
    <path fill="#08CEBB" d="M12.637 0H1.863C.833 0 0 .914 0 2.04v23.922C0 27.087.832 28 1.863 28h10.774c1.029 0 1.863-.913 1.863-2.038V2.04C14.5.914 13.666 0 12.637 0zM4.592 1.239H9.91c.135 0 .244.22.244.49 0 .272-.11.492-.244.492H4.592c-.136 0-.243-.22-.243-.492 0-.27.107-.49.243-.49zM7.25 25.987c-.656 0-1.19-.584-1.19-1.302 0-.718.534-1.3 1.19-1.3.654 0 1.188.582 1.188 1.3 0 .718-.534 1.302-1.188 1.302zm5.853-4.458H1.397V3.442h11.707v18.087z"/>
</svg>
