<svg xmlns="http://www.w3.org/2000/svg" width="24" height="35" fill="none" viewBox="0 0 24 35">
    <path fill="#08CEBB" d="M16.777 7.766a.153.153 0 0 1-.17.04.154.154 0 0 1-.098-.145V5.492h-1.181a.828.828 0 0 1-.828-.827V.828c0-.457.37-.828.828-.828h7.722c.457 0 .827.37.827.828v3.837c0 .457-.37.827-.827.827h-4.183l-2.09 2.274zm5.444-6.01h-1.917a.302.302 0 0 0 0 .605h1.917a.302.302 0 0 0 0-.605zm.302 1.629a.302.302 0 0 0-.302-.302H18.42a.302.302 0 0 0 0 .604h3.802a.302.302 0 0 0 .302-.302zM12.637 7H1.863C.833 7 0 7.914 0 9.04v23.922C0 34.087.832 35 1.863 35h10.774c1.029 0 1.863-.913 1.863-2.038V9.04c0-1.126-.834-2.04-1.863-2.04zM4.592 8.239H9.91c.135 0 .244.22.244.49 0 .272-.11.492-.244.492H4.592c-.136 0-.243-.22-.243-.492 0-.27.107-.49.243-.49zM7.25 32.987c-.656 0-1.19-.584-1.19-1.302 0-.718.534-1.3 1.19-1.3.654 0 1.188.582 1.188 1.3 0 .718-.534 1.302-1.188 1.302zm5.853-4.458H1.397V10.442h11.707v18.087z"/>
</svg>
