<svg xmlns="http://www.w3.org/2000/svg" width="29" height="5" fill="none" viewBox="0 0 29 5">
    <g clip-path="url(#a)">
        <path fill="#FFDC64" d="M.118 1.838l1.62-.15L2.38.194a.13.13 0 0 1 .238 0l.644 1.494 1.62.15a.13.13 0 0 1 .073.227L3.734 3.14l.357 1.586a.13.13 0 0 1-.192.14L2.5 4.035l-1.398.83a.13.13 0 0 1-.193-.14l.357-1.586L.044 2.065a.13.13 0 0 1 .074-.227z"/>
        <path fill="#FFC850" d="M2.38.194a.13.13 0 0 1 .24 0l.643 1.494 1.62.15a.13.13 0 0 1 .073.227L3.734 3.14l.357 1.586a.13.13 0 0 1-.192.14l-.313-.185C3.543 2.902 2.717 1.65 2.063.933L2.38.194z"/>
    </g>
    <g clip-path="url(#b)">
        <path fill="#FFDC64" d="M6.118 1.838l1.62-.15L8.38.194a.13.13 0 0 1 .238 0l.644 1.494 1.62.15a.13.13 0 0 1 .073.227L9.734 3.14l.357 1.586a.13.13 0 0 1-.192.14L8.5 4.035l-1.398.83a.13.13 0 0 1-.193-.14l.357-1.586-1.222-1.074a.13.13 0 0 1 .074-.227z"/>
        <path fill="#FFC850" d="M8.38.194a.13.13 0 0 1 .24 0l.643 1.494 1.62.15a.13.13 0 0 1 .073.227L9.734 3.14l.357 1.586a.13.13 0 0 1-.192.14l-.313-.185C9.543 2.902 8.717 1.65 8.063.933L8.38.194z"/>
    </g>
    <g clip-path="url(#c)">
        <path fill="#FFDC64" d="M12.118 1.838l1.62-.15.643-1.494a.13.13 0 0 1 .238 0l.644 1.494 1.62.15a.13.13 0 0 1 .073.227L15.734 3.14l.357 1.586a.13.13 0 0 1-.192.14l-1.399-.83-1.398.83a.13.13 0 0 1-.193-.14l.357-1.586-1.222-1.074a.13.13 0 0 1 .074-.227z"/>
        <path fill="#FFC850" d="M14.38.194a.13.13 0 0 1 .24 0l.643 1.494 1.62.15a.13.13 0 0 1 .073.227L15.734 3.14l.357 1.586a.13.13 0 0 1-.192.14l-.313-.185c-.043-1.778-.869-3.03-1.523-3.747l.318-.739z"/>
    </g>
    <g clip-path="url(#d)">
        <path fill="#FFDC64" d="M18.118 1.838l1.62-.15.643-1.494a.13.13 0 0 1 .238 0l.644 1.494 1.62.15a.13.13 0 0 1 .073.227L21.734 3.14l.357 1.586a.13.13 0 0 1-.192.14l-1.399-.83-1.398.83a.13.13 0 0 1-.193-.14l.357-1.586-1.222-1.074a.13.13 0 0 1 .074-.227z"/>
        <path fill="#FFC850" d="M20.38.194a.13.13 0 0 1 .24 0l.643 1.494 1.62.15a.13.13 0 0 1 .073.227L21.734 3.14l.357 1.586a.13.13 0 0 1-.192.14l-.313-.185c-.043-1.778-.869-3.03-1.523-3.747l.318-.739z"/>
    </g>
    <g clip-path="url(#e)">
        <path fill="#FFDC64" d="M24.118 1.838l1.62-.15.643-1.494a.13.13 0 0 1 .238 0l.644 1.494 1.62.15a.13.13 0 0 1 .073.227L27.734 3.14l.357 1.586a.13.13 0 0 1-.192.14l-1.399-.83-1.398.83a.13.13 0 0 1-.193-.14l.357-1.586-1.222-1.074a.13.13 0 0 1 .074-.227z"/>
        <path fill="#FFC850" d="M26.38.194a.13.13 0 0 1 .24 0l.643 1.494 1.62.15a.13.13 0 0 1 .073.227L27.734 3.14l.357 1.586a.13.13 0 0 1-.192.14l-.313-.185c-.043-1.778-.869-3.03-1.523-3.747l.318-.739z"/>
    </g>
    <defs>
        <clipPath id="a">
            <path fill="#fff" d="M0 0h10v10H0z" transform="matrix(-.5 0 0 .5 5 0)"/>
        </clipPath>
        <clipPath id="b">
            <path fill="#fff" d="M0 0h10v10H0z" transform="matrix(-.5 0 0 .5 11 0)"/>
        </clipPath>
        <clipPath id="c">
            <path fill="#fff" d="M0 0h10v10H0z" transform="matrix(-.5 0 0 .5 17 0)"/>
        </clipPath>
        <clipPath id="d">
            <path fill="#fff" d="M0 0h10v10H0z" transform="matrix(-.5 0 0 .5 23 0)"/>
        </clipPath>
        <clipPath id="e">
            <path fill="#fff" d="M0 0h10v10H0z" transform="matrix(-.5 0 0 .5 29 0)"/>
        </clipPath>
    </defs>
</svg>
